<!-- <svg width="12" height="16" viewBox="0 0 12 16" xmlns="http://www.w3.org/2000/svg">
<path d="M10.7062 4.70615C11.0969 4.31553 11.0969 3.68115 10.7062 3.29053C10.3156 2.8999 9.68124 2.8999 9.29062 3.29053L5.99999 6.58428L2.70624 3.29365C2.31562 2.90303 1.68124 2.90303 1.29062 3.29365C0.899994 3.68428 0.899994 4.31865 1.29062 4.70928L4.58437 7.9999L1.29374 11.2937C0.903119 11.6843 0.903119 12.3187 1.29374 12.7093C1.68437 13.0999 2.31874 13.0999 2.70937 12.7093L5.99999 9.41553L9.29374 12.7062C9.68437 13.0968 10.3187 13.0968 10.7094 12.7062C11.1 12.3155 11.1 11.6812 10.7094 11.2905L7.41562 7.9999L10.7062 4.70615Z" />
</svg>
 -->

 <svg width="24" height="24" viewBox="0 0 12 16" xmlns="http://www.w3.org/2000/svg">
<path d="M10.7062 4.70615C11.0969 4.31553 11.0969 3.68115 10.7062 3.29053C10.3156 2.8999 9.68124 2.8999 9.29062 3.29053L5.99999 6.58428L2.70624 3.29365C2.31562 2.90303 1.68124 2.90303 1.29062 3.29365C0.899994 3.68428 0.899994 4.31865 1.29062 4.70928L4.58437 7.9999L1.29374 11.2937C0.903119 11.6843 0.903119 12.3187 1.29374 12.7093C1.68437 13.0999 2.31874 13.0999 2.70937 12.7093L5.99999 9.41553L9.29374 12.7062C9.68437 13.0968 10.3187 13.0968 10.7094 12.7062C11.1 12.3155 11.1 11.6812 10.7094 11.2905L7.41562 7.9999L10.7062 4.70615Z" />
</svg>
