<!-- <svg width="160" height="116" viewBox="0 0 160 116" fill="none" xmlns="http://www.w3.org/2000/svg">
<rect x="0.5" y="25.5" width="159" height="89.3226" fill="#F1F5F9" stroke="#94A3B8" stroke-dasharray="8 8"/>
<g clip-path="url(#clip0_4414_1029)">
<path d="M91.4272 10C89.9117 10 88.4582 10.5268 87.3866 11.4645C86.3149 12.4021 85.7129 13.6739 85.7129 15C85.7129 16.3261 86.3149 17.5979 87.3866 18.5355C88.4582 19.4732 89.9117 20 91.4272 20C92.9427 20 94.3962 19.4732 95.4678 18.5355C96.5394 17.5979 97.1415 16.3261 97.1415 15C97.1415 13.6739 96.5394 12.4021 95.4678 11.4645C94.3962 10.5268 92.9427 10 91.4272 10Z" fill="#2F3E6A"/>
<path fill-rule="evenodd" clip-rule="evenodd" d="M51.4277 5C51.4277 3.67392 52.0298 2.40215 53.1014 1.46447C54.173 0.526784 55.6265 0 57.142 0L102.856 0C104.372 0 105.825 0.526784 106.897 1.46447C107.969 2.40215 108.571 3.67392 108.571 5V45C108.571 45.8257 108.338 46.6386 107.892 47.3667C107.403 48.1629 106.677 48.8283 105.79 49.292C104.903 49.7557 103.889 50.0004 102.856 50H57.142C55.6265 50 54.173 49.4732 53.1014 48.5355C52.0298 47.5979 51.4277 46.3261 51.4277 45V5ZM69.9039 10.4733L68.5706 9.30667L55.2373 20.9733V5C55.2373 4.55797 55.4379 4.13405 55.7951 3.82149C56.1524 3.50893 56.6368 3.33333 57.142 3.33333H102.856C103.361 3.33333 103.846 3.50893 104.203 3.82149C104.56 4.13405 104.761 4.55797 104.761 5V33.3333H96.0258L69.9192 10.4867L69.9039 10.4733Z" fill="#2F3E6A"/>
</g>
<defs>
<clipPath id="clip0_4414_1029">
<rect width="57.1429" height="50" fill="white" transform="translate(51.4277)"/>
</clipPath>
</defs>
</svg>
 -->

 <svg className="DDicon" viewBox="0 0 160 116" fill="none" xmlns="http://www.w3.org/2000/svg">
<rect x="0.5" y="25.5" width="159" height="89.3226" fill="#F1F5F9" stroke="#94A3B8" stroke-dasharray="8 8"/>
<g class="picture-icon" clip-path="url(#clip0_4414_1029)">
<path d="M91.4272 10C89.9117 10 88.4582 10.5268 87.3866 11.4645C86.3149 12.4021 85.7129 13.6739 85.7129 15C85.7129 16.3261 86.3149 17.5979 87.3866 18.5355C88.4582 19.4732 89.9117 20 91.4272 20C92.9427 20 94.3962 19.4732 95.4678 18.5355C96.5394 17.5979 97.1415 16.3261 97.1415 15C97.1415 13.6739 96.5394 12.4021 95.4678 11.4645C94.3962 10.5268 92.9427 10 91.4272 10Z" fill="#2F3E6A"/>
<path fill-rule="evenodd" clip-rule="evenodd" d="M51.4277 5C51.4277 3.67392 52.0298 2.40215 53.1014 1.46447C54.173 0.526784 55.6265 0 57.142 0L102.856 0C104.372 0 105.825 0.526784 106.897 1.46447C107.969 2.40215 108.571 3.67392 108.571 5V45C108.571 45.8257 108.338 46.6386 107.892 47.3667C107.403 48.1629 106.677 48.8283 105.79 49.292C104.903 49.7557 103.889 50.0004 102.856 50H57.142C55.6265 50 54.173 49.4732 53.1014 48.5355C52.0298 47.5979 51.4277 46.3261 51.4277 45V5ZM69.9039 10.4733L68.5706 9.30667L55.2373 20.9733V5C55.2373 4.55797 55.4379 4.13405 55.7951 3.82149C56.1524 3.50893 56.6368 3.33333 57.142 3.33333H102.856C103.361 3.33333 103.846 3.50893 104.203 3.82149C104.56 4.13405 104.761 4.55797 104.761 5V33.3333H96.0258L69.9192 10.4867L69.9039 10.4733Z" fill="#2F3E6A"/>
</g>
<defs>
<clipPath id="clip0_4414_1029">
<rect width="57.1429" height="50" fill="white" transform="translate(51.4277)"/>
</clipPath>
</defs>
</svg>
