<?xml version="1.0" encoding="UTF-8"?><svg id="Ebene_1" xmlns="http://www.w3.org/2000/svg" viewBox="0 0 422.59 99.21">
<title>Logo der Staatsbibliothek zu Berlin</title>
<desc>Das Bild zeigt einen stilisierten Adlerkopf. Er ist die Bildmarke im Logo der Staatsbibliothek zu Berlin.</desc>
<defs><style>.cls-1{fill:currentColor;stroke-width:0px;}</style></defs><path class="cls-1" d="m0,1.22v65.49c6.92-8.47,12.89-11.99,15.39-13.1.23-.1.24-.26.23-.33-.02-.12-.14-.24-.44-.24-1.23.02-3.78.71-5.44,1.32-.39.14-.45-.12-.29-.41.36-.67,1.99-2.2,6.86-4.17,8.04-3.24,16.35-2.89,20.15-.98,1.69.85,2.39,2.53,2.6,3.14.03.08,0,.12-.07.12-5.9-.07-8.56.23-10.33.77-.53.16-.58.55-.11.9.83.63,3.42,1.3,4.46,1.47.31.05.48-.05.67-.27.22-.25.5-.61.75-.85.19-.19.29-.21.66-.23.55-.04,1.81-.06,2.92-.04,5.17.09,10.94,1.37,10.94,8.69,0,2.63-1.08,5.21-1.59,5.99-.33.52-.86.49-.83-.28.14-3.6-.44-5.07-6.13-5.07-2.88,0-7.42.42-9.46,1.37-.76.35-.83,1.01-.07.94,1.13-.1,5.58-.4,8.72-.4,2.08,0,3.72.21,4.31,1.04.14.2.17.58-.33.5-.2-.03-.73-.09-1.46-.09-6.55,0-12.95,3.86-12.95,10.55,0,10.63,15.64,14.88,35.2,14.88,15.75,0,26.36-3.38,26.36-3.38V1.22H0Z"/><path class="cls-1" d="m395.2,74.27l-2.28.12v14.18h2.28v-14.3Zm-199.59,0l-2.28.12v14.18h2.28v-14.3Zm-64.91,1.94c0,2.76-1.22,3.55-3.77,3.55h-3.53v-7.06h3.53c2.62,0,3.77.89,3.77,3.51m2.52,0c0-3.91-1.87-5.64-6.29-5.64h-5.97v18h2.45v-6.74h3.53c4.46,0,6.29-1.92,6.29-5.61m11.26.55l.14-2.3c-.38-.12-.89-.19-1.42-.19-1.94,0-3.5,1.2-4.39,3.24h-.05l-.19-3.05-1.82.12v13.99h2.28v-7.12c0-3.02,1.8-4.88,4.03-4.88.5,0,.98.05,1.42.19m11.71,3.41h-7.18c.14-2.67,1.22-3.94,3.65-3.94,2.07,0,3.48,1.09,3.53,3.94m2.04,1.56c.02-.31.05-.74.05-1.1,0-4.35-2.23-6.36-5.64-6.36-3.94,0-5.9,2.49-5.9,6.77,0,5.35,1.94,7.82,6.65,7.82,1.73,0,3.22-.41,4.41-1.05l-.26-1.92c-1.22.6-2.45.91-3.89.91-3.07,0-4.47-1.3-4.59-5.07h9.17Zm14.57,2.14v-9.6h-2.25v9.55c0,1.94-1.13,2.93-3.29,2.93s-3.31-1.01-3.31-2.93v-9.55h-2.25v9.6c0,3.14,1.8,4.97,5.54,4.97s5.57-1.8,5.57-4.97m16.49.16c0-3.9-5.28-4.54-5.28-5.77,0-.99,3.12-2.2,3.12-4.59,0-1.9-1.78-3.41-4.35-3.41-3.6,0-5.59,2.15-5.59,6.17v15.71h2.25v-15.93c0-2.67,1.1-4,3.29-4,1.37,0,2.23.64,2.23,1.51,0,1.92-3.39,3.05-3.39,4.8,0,2.22,5.4,2.62,5.4,5.56,0,1.61-1.42,2.39-3.41,2.39-.9,0-1.77-.23-2.5-.56l-.14,2.08c.91.38,2.05.56,3.02.56,3.19,0,5.33-1.73,5.33-4.54m6.67-13.38c0-.79-.48-1.22-1.46-1.22s-1.46.43-1.46,1.22c0,.91.48,1.22,1.46,1.22s1.46-.38,1.46-1.22m6.26,7.47c0-1.15,1.08-1.88,2.79-1.88,1.15,0,2.52.26,3.72.75l.19-1.9c-1.15-.53-2.47-.82-3.86-.82-3.29,0-4.99,1.58-4.99,3.96,0,4.72,7.32,3.24,7.32,6.41,0,1.31-.86,2.3-2.95,2.3-1.37,0-3-.42-4.08-1.22l-.29,1.94c1.1.79,2.69,1.2,4.39,1.2,3.53,0,5.04-1.8,5.04-4.43,0-4.88-7.27-3.33-7.27-6.32m12.34,3.32c0-3.62,1.15-5.08,4.25-5.08,1.03,0,2.06.26,2.9.64l.14-2.03c-.94-.41-2.23-.7-3.5-.7-4.27,0-6.14,2.44-6.14,7.17,0,5.15,2.06,7.45,6.07,7.45,1.51,0,2.86-.41,3.7-.98l-.17-1.85c-.86.52-1.92.8-3.05.8-2.74,0-4.2-1.46-4.2-5.41m19.9,7.14h2.25v-9.48c0-3.26-1.7-5.09-4.82-5.09-1.51,0-2.98.5-4.01,1.58l-.05-.02.02-1.92v-4.15l-2.25.14v18.93h2.25v-10.82c.58-.91,1.87-1.63,3.36-1.63,2.21,0,3.24,1.06,3.24,2.98v9.48Zm15.14-8.4h-7.18c.14-2.67,1.22-3.94,3.65-3.94,2.07,0,3.48,1.09,3.53,3.94m2.04,1.56c.02-.31.05-.74.05-1.1,0-4.35-2.23-6.36-5.64-6.36-3.94,0-5.9,2.49-5.9,6.77,0,5.35,1.94,7.82,6.65,7.82,1.73,0,3.22-.41,4.42-1.05l-.26-1.92c-1.22.6-2.45.91-3.89.91-3.07,0-4.47-1.3-4.59-5.07h9.17Zm11.4-4.97l.14-2.3c-.38-.12-.89-.19-1.42-.19-1.94,0-3.5,1.2-4.39,3.24h-.05l-.19-3.05-1.82.12v13.99h2.28v-7.12c0-3.02,1.8-4.88,4.03-4.88.5,0,.98.05,1.42.19m25.37,11.81l-6.58-9.48,6.22-8.52h-2.93l-5.52,7.61h-2.66v-7.61h-2.45v18h2.45v-8.3h2.62l5.78,8.3h3.07Zm13.7-4.7v-9.6h-2.25v9.55c0,1.94-1.13,2.93-3.29,2.93s-3.31-1.01-3.31-2.93v-9.55h-2.25v9.6c0,3.14,1.8,4.97,5.54,4.97s5.57-1.8,5.57-4.97m4.71,4.7h2.28v-19.08l-2.28.14v18.93Zm10.27-12.53h3.53v-1.77h-3.53v-3.7l-1.77.19-.43,3.51h-2.06v1.77h1.99v8.66c0,2.5,1.27,3.87,3.72,3.87.77,0,1.56-.14,1.99-.36l-.14-1.72c-.29.12-.79.19-1.2.19-1.3,0-2.09-.59-2.09-2.04v-8.59Zm17.66,7.83v-9.6h-2.25v9.55c0,1.94-1.13,2.93-3.29,2.93s-3.31-1.01-3.31-2.93v-9.55h-2.25v9.6c0,3.14,1.8,4.97,5.54,4.97s5.57-1.8,5.57-4.97m11.98-7.11l.14-2.3c-.38-.12-.89-.19-1.42-.19-1.94,0-3.5,1.2-4.39,3.24h-.05l-.19-3.05-1.82.12v13.99h2.28v-7.12c0-3.02,1.8-4.88,4.03-4.88.5,0,.98.05,1.42.19m13.08,4.66c0,4.44-1.49,5.52-3.72,5.52-1.75,0-2.95-.82-3.53-1.75v-7.42c.74-1.08,1.99-1.7,3.51-1.7,2.35,0,3.75,1.01,3.75,5.35m2.3-.05h0c0-5.43-2.11-7.37-5.45-7.37-1.59,0-3.05.53-4.08,1.61l-.05-.02.02-1.92v-4.2l-2.25.14v18.96h1.51l.36-1.49.07-.02c.89,1.1,2.38,1.78,4.15,1.78,3.63,0,5.71-2.09,5.71-7.46m12.29-1.2h-7.18c.14-2.67,1.22-3.94,3.65-3.94,2.06,0,3.48,1.09,3.53,3.94m2.04,1.56c.02-.31.05-.74.05-1.1,0-4.35-2.23-6.36-5.64-6.36-3.94,0-5.9,2.49-5.9,6.77,0,5.35,1.94,7.82,6.65,7.82,1.73,0,3.22-.41,4.42-1.05l-.26-1.92c-1.22.6-2.45.91-3.89.91-3.07,0-4.47-1.3-4.59-5.07h9.17Zm5.11-3.62c0-1.15,1.08-1.88,2.79-1.88,1.15,0,2.52.26,3.72.75l.19-1.9c-1.15-.53-2.47-.82-3.86-.82-3.29,0-4.99,1.58-4.99,3.96,0,4.72,7.32,3.24,7.32,6.41,0,1.31-.86,2.3-2.95,2.3-1.37,0-3-.42-4.08-1.22l-.29,1.94c1.1.79,2.69,1.2,4.39,1.2,3.53,0,5.04-1.8,5.04-4.43,0-4.88-7.27-3.33-7.27-6.32m14.02-7.47c0-.79-.48-1.22-1.46-1.22s-1.46.43-1.46,1.22c0,.91.48,1.22,1.46,1.22s1.46-.38,1.46-1.22m7.82,5.4h3.53v-1.77h-3.53v-3.7l-1.77.19-.43,3.51h-2.06v1.77h1.99v8.66c0,2.5,1.27,3.87,3.72,3.87.77,0,1.56-.14,1.99-.36l-.14-1.72c-.29.12-.79.19-1.2.19-1.3,0-2.09-.59-2.09-2.04v-8.59Zm10.03,8.98l6.34-9.1v-1.65h-9.77l-.07,1.97h7.2l.02.05-1.13,1.54-6.36,9.12v1.63h10.18l.07-1.97h-7.58l-.02-.07,1.13-1.51Z"/><path class="cls-1" d="m232.85,52.17v-9.65c0-3.77-2.02-5.8-5.22-5.8-1.58,0-3.05.52-4.18,1.5l-.57-1.3-2.8.17v15.07h3.9v-10.85c.53-.72,1.58-1.15,2.55-1.15,1.6,0,2.45.67,2.45,2.35v9.65h3.87Zm-16.6-18.42c0-1.1-.67-1.67-2.2-1.67s-2.22.6-2.22,1.67c0,1.22.72,1.65,2.22,1.65s2.2-.55,2.2-1.65m-.22,18.42v-15.15l-3.97.17v14.97h3.97Zm-8.33,0v-19.65l-3.92.18v19.47h3.92Zm-12.28,0v-7.44c0-2.47,1.5-3.91,3.53-3.91.6,0,1.18.1,1.65.24l.25-3.82c-.4-.12-.98-.22-1.65-.22-1.73,0-3.2.9-4.15,2.72h-.07l-.35-2.52-3.1.15v14.8h3.9Zm-15.8-9.12c.18-2.2.9-3.08,2.78-3.08,1.63,0,2.63.85,2.68,3.08h-5.45Zm3.63,9.4c1.93,0,3.67-.4,4.95-.97l-.42-3.12c-1.3.5-2.62.75-4.05.75-2.6,0-3.83-.95-4.03-3.48h8.83c.07-.52.1-1.25.1-1.82,0-4.8-2.37-7.05-6.25-7.05-4.55,0-6.67,2.82-6.67,7.65,0,5.3,2.32,8.05,7.55,8.05m-14.7-13.47c0,1.48-.65,2.08-2.15,2.08h-3.5v-4.08h3.4c1.58,0,2.25.53,2.25,2m.48,7.43c0,1.78-.75,2.33-2.43,2.33h-3.73v-4.55h3.63c1.83,0,2.53.65,2.53,2.23m4.22.32c0-2.38-1.1-3.85-3.17-4.42v-.05c1.5-.62,2.5-1.92,2.5-4.03,0-2.97-2.05-4.8-6.12-4.8h-7.62v18.75h7.72c4.72,0,6.7-2.07,6.7-5.45m-25.25-9.7h-3.87v9.73c0,1.55-.8,2.28-2.5,2.28s-2.5-.78-2.5-2.28v-9.73h-3.87v9.8c0,3.6,2.07,5.62,6.37,5.62s6.37-1.95,6.37-5.62v-9.8Zm-15.82,2.7v-2.7h-10.9l-.12,3.22h6.52l.03.05-1.2,1.58-5.55,7.58v2.72h11.35l.1-3.22h-6.95l-.02-.07,1.2-1.55,5.55-7.6Z"/><path class="cls-1" d="m318.86.32l-3.87.18v19.47h3.87v-6.52h1.98l3.23,6.52h4.38l-4.28-8.27,4.12-6.87h-4.3l-3.15,5.47h-1.98V.32Zm-15.9,10.53c.18-2.2.9-3.08,2.78-3.08,1.63,0,2.63.85,2.68,3.08h-5.45Zm3.63,9.4c1.93,0,3.67-.4,4.95-.97l-.42-3.12c-1.3.5-2.62.75-4.05.75-2.6,0-3.83-.95-4.03-3.48h8.83c.08-.52.1-1.25.1-1.82,0-4.8-2.37-7.05-6.25-7.05-4.55,0-6.67,2.82-6.67,7.65,0,5.3,2.32,8.05,7.55,8.05m-10.33-.28v-9.65c0-3.65-1.87-5.8-5.07-5.8-1.28,0-2.65.35-3.78,1.3l-.08-.05.05-2V.32l-3.87.2v19.45h3.87v-10.85c.48-.65,1.45-1.15,2.58-1.15,1.65,0,2.43.8,2.43,2.35v9.65h3.87Zm-15.5-12.25v-2.9h-3.38V1.22l-3.05.27-.65,3.33h-1.88v2.9h1.7v7.67c0,2.83,1.47,4.58,4.5,4.58,1.07,0,2.08-.2,2.6-.42l-.23-2.82c-.27.1-.8.17-1.2.17-1.2,0-1.8-.49-1.8-1.63v-7.55h3.38Zm-20.52,4.73c0-3.7.78-4.7,2.93-4.7s2.9,1,2.9,4.7-.77,4.7-2.9,4.7-2.93-.98-2.93-4.7m9.85,0c0-5.55-2.1-7.9-6.92-7.9s-6.95,2.35-6.95,7.9,2.15,7.87,6.95,7.87,6.92-2.3,6.92-7.87m-17.03-10.9c0-1.1-.67-1.67-2.2-1.67s-2.22.6-2.22,1.67c0,1.22.72,1.65,2.22,1.65s2.2-.55,2.2-1.65m-.22,18.42V4.82l-3.97.17v14.97h3.97Zm-8.33,0V.32l-3.92.17v19.47h3.92Zm-11.15-7.55c0,3.93-1.05,4.73-2.8,4.73-1.3,0-2.18-.58-2.65-1.3v-6.63c.55-.8,1.5-1.28,2.63-1.28,1.85,0,2.83.7,2.83,4.48m4-.08c0-5.55-2.2-7.8-5.7-7.8-1.38,0-2.7.42-3.73,1.35l-.07-.05.05-2V.32l-3.87.18v19.47h2.62l.5-1.25c.92.93,2.33,1.55,4.03,1.55,3.87,0,6.17-2.37,6.17-7.92h0Zm-17.28-10.8c0-1.1-.67-1.67-2.2-1.67s-2.22.6-2.22,1.67c0,1.22.73,1.65,2.22,1.65s2.2-.55,2.2-1.65m-.22,18.42V4.82l-3.97.17v14.97h3.97Zm-11.35-7.55c0,3.93-1.05,4.73-2.8,4.73-1.3,0-2.18-.58-2.65-1.3v-6.63c.55-.8,1.5-1.28,2.63-1.28,1.85,0,2.83.7,2.83,4.48m4-.08c0-5.55-2.2-7.8-5.7-7.8-1.38,0-2.7.42-3.73,1.35l-.08-.05.05-2V.32l-3.87.18v19.47h2.62l.5-1.25c.92.93,2.33,1.55,4.03,1.55,3.88,0,6.17-2.37,6.17-7.92h0Zm-16.3,2.93c0-5.09-6.93-3.75-6.93-5.99,0-.75.7-1.24,1.98-1.24,1.13,0,2.8.24,4.05.75l.32-3.15c-1.27-.52-2.77-.82-4.3-.82-3.9,0-5.75,1.95-5.75,4.63,0,5.16,7.02,3.8,7.02,6.16,0,.88-.65,1.48-2.2,1.48-1.3,0-3.07-.34-4.32-1.05l-.4,3.17c1.27.7,2.92,1.05,4.75,1.05,4.1,0,5.77-2.02,5.77-5m-12.65-7.55v-2.9h-3.38V1.22l-3.05.27-.65,3.33h-1.87v2.9h1.7v7.67c0,2.83,1.47,4.58,4.5,4.58,1.08,0,2.08-.2,2.6-.42l-.22-2.82c-.27.1-.8.17-1.2.17-1.2,0-1.8-.49-1.8-1.63v-7.55h3.38Zm-15.25,7.65c0,.78-1.2,1.53-2.53,1.53s-2.15-.49-2.15-1.88c0-1.24.8-1.88,2.53-1.88,1.03,0,1.78.16,2.15.3v1.92Zm.87,4.6h2.97v-9.37c0-4.15-1.55-6.07-6.02-6.07-1.95,0-3.68.35-5.2,1l.32,3.1c1.4-.58,2.5-.83,4.17-.83,2.08,0,2.88.7,2.88,2.23v.87c-.8-.25-1.78-.42-2.9-.42-3.45,0-5.4,1.92-5.4,4.72,0,3.15,1.82,4.78,4.7,4.78,1.73,0,3.18-.62,4.1-1.72l.07.02.3,1.7Zm-15.9-4.6c0,.78-1.2,1.53-2.53,1.53s-2.15-.49-2.15-1.88c0-1.24.8-1.88,2.53-1.88,1.03,0,1.78.16,2.15.3v1.92Zm.87,4.6h2.97v-9.37c0-4.15-1.55-6.07-6.02-6.07-1.95,0-3.68.35-5.2,1l.32,3.1c1.4-.58,2.5-.83,4.17-.83,2.08,0,2.88.7,2.88,2.23v.87c-.8-.25-1.78-.42-2.9-.42-3.45,0-5.4,1.92-5.4,4.72,0,3.15,1.82,4.78,4.7,4.78,1.73,0,3.18-.62,4.1-1.72l.08.02.3,1.7Zm-11.07-12.25v-2.9h-3.38V1.22l-3.05.27-.65,3.33h-1.88v2.9h1.7v7.67c0,2.83,1.47,4.58,4.5,4.58,1.07,0,2.07-.2,2.6-.42l-.23-2.82c-.28.1-.8.17-1.2.17-1.2,0-1.8-.49-1.8-1.63v-7.55h3.38Zm-10.4,6.63c0-6.35-8.63-5-8.63-7.93,0-1,.63-1.8,2.95-1.8,1.43,0,2.98.3,4.52.8l.52-3.55c-1.45-.6-3.42-.97-5.25-.97-4.75,0-6.8,2.57-6.8,5.75,0,6.28,8.63,5.03,8.63,7.98,0,1.3-.9,2.05-2.95,2.05-1.85,0-3.55-.5-5.2-1.38l-.55,3.62c1.62.87,3.62,1.4,5.8,1.4,4.38,0,6.95-2.27,6.95-5.97"/></svg>