<svg width="176" height="62" viewBox="0 0 176 62" fill="none" xmlns="http://www.w3.org/2000/svg">
<path d="M7.76 21L4.84 10.72H4.76C4.78667 10.9867 4.81333 11.3467 4.84 11.8C4.86667 12.2533 4.89333 12.7467 4.92 13.28C4.94667 13.8 4.96 14.3067 4.96 14.8V21H1.54V6.72H6.68L9.66 16.86H9.74L12.66 6.72H17.8V21H14.26V14.74C14.26 14.2867 14.2667 13.8067 14.28 13.3C14.2933 12.78 14.3133 12.2933 14.34 11.84C14.3667 11.3733 14.3867 11.0067 14.4 10.74H14.32L11.44 21H7.76ZM27.0959 21L24.1759 10.72H24.0959C24.1226 10.9867 24.1493 11.3467 24.1759 11.8C24.2026 12.2533 24.2293 12.7467 24.2559 13.28C24.2826 13.8 24.2959 14.3067 24.2959 14.8V21H20.8759V6.72H26.0159L28.9959 16.86H29.0759L31.9959 6.72H37.1359V21H33.5959V14.74C33.5959 14.2867 33.6026 13.8067 33.6159 13.3C33.6293 12.78 33.6493 12.2933 33.6759 11.84C33.7026 11.3733 33.7226 11.0067 33.7359 10.74H33.6559L30.7759 21H27.0959ZM52.4119 21H48.0519L45.2319 15.54L44.0919 16.22V21H40.2119V6.72H44.0919V12.92C44.2519 12.6133 44.4385 12.3067 44.6519 12C44.8652 11.68 45.0719 11.38 45.2719 11.1L48.2719 6.72H52.4919L47.9919 13.12L52.4119 21ZM8.568 54H0.768V51.936L2.856 50.976V39.888L0.768 38.928V36.864H8.568V38.928L6.48 39.888V50.976L8.568 51.936V54ZM26.5841 40.656C28.0721 40.656 29.1921 41.04 29.9441 41.808C30.7121 42.56 31.0961 43.776 31.0961 45.456V54H27.5201V46.344C27.5201 45.4 27.3601 44.696 27.0401 44.232C26.7201 43.752 26.2241 43.512 25.5521 43.512C24.6081 43.512 23.9361 43.848 23.5361 44.52C23.1361 45.192 22.9361 46.16 22.9361 47.424V54H19.3601V46.344C19.3601 45.72 19.2881 45.2 19.1441 44.784C19.0001 44.368 18.7841 44.056 18.4961 43.848C18.2081 43.624 17.8401 43.512 17.3921 43.512C16.7361 43.512 16.2161 43.68 15.8321 44.016C15.4481 44.352 15.1761 44.84 15.0161 45.48C14.8561 46.12 14.7761 46.904 14.7761 47.832V54H11.2001V40.896H13.9361L14.4161 42.576H14.6081C14.8801 42.128 15.2161 41.768 15.6161 41.496C16.0161 41.208 16.4561 41 16.9361 40.872C17.4321 40.728 17.9281 40.656 18.4241 40.656C19.3841 40.656 20.2001 40.816 20.8721 41.136C21.5441 41.44 22.0561 41.92 22.4081 42.576H22.7201C23.1201 41.904 23.6721 41.416 24.3761 41.112C25.0961 40.808 25.8321 40.656 26.5841 40.656ZM40.1543 40.632C41.9143 40.632 43.2583 41.016 44.1863 41.784C45.1303 42.536 45.6023 43.696 45.6023 45.264V54H43.1063L42.4103 52.224H42.3143C41.9463 52.688 41.5623 53.072 41.1623 53.376C40.7783 53.68 40.3303 53.896 39.8183 54.024C39.3223 54.168 38.7063 54.24 37.9703 54.24C37.2023 54.24 36.5063 54.096 35.8823 53.808C35.2743 53.504 34.7943 53.048 34.4423 52.44C34.0903 51.816 33.9143 51.032 33.9143 50.088C33.9143 48.696 34.4023 47.672 35.3783 47.016C36.3543 46.344 37.8183 45.976 39.7703 45.912L42.0503 45.84V45.264C42.0503 44.576 41.8663 44.072 41.4983 43.752C41.1463 43.432 40.6503 43.272 40.0103 43.272C39.3703 43.272 38.7463 43.368 38.1383 43.56C37.5303 43.736 36.9223 43.96 36.3143 44.232L35.1383 41.808C35.8423 41.44 36.6183 41.152 37.4663 40.944C38.3303 40.736 39.2263 40.632 40.1543 40.632ZM40.6583 47.976C39.5063 48.008 38.7063 48.216 38.2583 48.6C37.8103 48.984 37.5863 49.488 37.5863 50.112C37.5863 50.656 37.7463 51.048 38.0663 51.288C38.3863 51.512 38.8023 51.624 39.3143 51.624C40.0823 51.624 40.7303 51.4 41.2583 50.952C41.7863 50.488 42.0503 49.84 42.0503 49.008V47.928L40.6583 47.976ZM53.5106 40.656C54.3106 40.656 55.0306 40.816 55.6706 41.136C56.3106 41.456 56.8546 41.936 57.3026 42.576H57.3986L57.6866 40.896H60.7106V54.024C60.7106 55.272 60.4626 56.32 59.9666 57.168C59.4866 58.016 58.7586 58.656 57.7826 59.088C56.8066 59.536 55.5986 59.76 54.1586 59.76C53.2306 59.76 52.3666 59.704 51.5666 59.592C50.7826 59.48 50.0146 59.28 49.2626 58.992V56.136C49.8066 56.36 50.3506 56.544 50.8946 56.688C51.4546 56.848 52.0226 56.96 52.5986 57.024C53.1906 57.104 53.7826 57.144 54.3746 57.144C55.3026 57.144 55.9906 56.896 56.4386 56.4C56.9026 55.904 57.1346 55.16 57.1346 54.168V53.904C57.1346 53.632 57.1426 53.352 57.1586 53.064C57.1906 52.776 57.2146 52.52 57.2306 52.296H57.1346C56.6866 52.984 56.1506 53.48 55.5266 53.784C54.9026 54.088 54.1986 54.24 53.4146 54.24C51.8626 54.24 50.6466 53.648 49.7666 52.464C48.9026 51.264 48.4706 49.6 48.4706 47.472C48.4706 46.032 48.6706 44.808 49.0706 43.8C49.4706 42.776 50.0466 42 50.7986 41.472C51.5666 40.928 52.4706 40.656 53.5106 40.656ZM54.6386 43.56C54.0786 43.56 53.6066 43.712 53.2226 44.016C52.8546 44.304 52.5746 44.744 52.3826 45.336C52.2066 45.912 52.1186 46.64 52.1186 47.52C52.1186 48.832 52.3266 49.816 52.7426 50.472C53.1586 51.112 53.8066 51.432 54.6866 51.432C55.1506 51.432 55.5506 51.376 55.8866 51.264C56.2226 51.136 56.4946 50.936 56.7026 50.664C56.9266 50.376 57.0946 50.008 57.2066 49.56C57.3186 49.112 57.3746 48.568 57.3746 47.928V47.496C57.3746 46.552 57.2786 45.792 57.0866 45.216C56.8946 44.64 56.5986 44.224 56.1986 43.968C55.7986 43.696 55.2786 43.56 54.6386 43.56ZM69.8501 40.656C71.0661 40.656 72.1061 40.888 72.9701 41.352C73.8501 41.816 74.5301 42.488 75.0101 43.368C75.4901 44.248 75.7301 45.328 75.7301 46.608V48.336H67.2821C67.3141 49.344 67.6101 50.136 68.1701 50.712C68.7461 51.288 69.5381 51.576 70.5461 51.576C71.3941 51.576 72.1621 51.496 72.8501 51.336C73.5381 51.16 74.2501 50.896 74.9861 50.544V53.304C74.3461 53.624 73.6661 53.856 72.9461 54C72.2421 54.16 71.3861 54.24 70.3781 54.24C69.0661 54.24 67.9061 54 66.8981 53.52C65.8901 53.024 65.0981 52.28 64.5221 51.288C63.9461 50.296 63.6581 49.048 63.6581 47.544C63.6581 46.008 63.9141 44.736 64.4261 43.728C64.9541 42.704 65.6821 41.936 66.6101 41.424C67.5381 40.912 68.6181 40.656 69.8501 40.656ZM69.8741 43.2C69.1861 43.2 68.6101 43.424 68.1461 43.872C67.6981 44.32 67.4341 45.016 67.3541 45.96H72.3701C72.3701 45.432 72.2741 44.96 72.0821 44.544C71.9061 44.128 71.6341 43.8 71.2661 43.56C70.8981 43.32 70.4341 43.2 69.8741 43.2ZM95.2562 49.248C95.2562 50.256 95.0082 51.136 94.5122 51.888C94.0162 52.64 93.2962 53.224 92.3522 53.64C91.4242 54.04 90.2882 54.24 88.9442 54.24C88.3522 54.24 87.7682 54.2 87.1922 54.12C86.6322 54.04 86.0882 53.928 85.5602 53.784C85.0482 53.624 84.5602 53.432 84.0962 53.208V49.824C84.9122 50.176 85.7522 50.504 86.6162 50.808C87.4962 51.096 88.3682 51.24 89.2322 51.24C89.8242 51.24 90.2962 51.16 90.6482 51C91.0162 50.84 91.2802 50.624 91.4402 50.352C91.6162 50.08 91.7042 49.768 91.7042 49.416C91.7042 48.984 91.5522 48.616 91.2482 48.312C90.9602 48.008 90.5682 47.728 90.0722 47.472C89.5762 47.2 89.0082 46.912 88.3682 46.608C87.9682 46.416 87.5362 46.192 87.0722 45.936C86.6082 45.664 86.1602 45.336 85.7282 44.952C85.3122 44.552 84.9682 44.072 84.6962 43.512C84.4242 42.952 84.2882 42.28 84.2882 41.496C84.2882 40.472 84.5202 39.6 84.9842 38.88C85.4642 38.144 86.1362 37.584 87.0002 37.2C87.8802 36.816 88.9122 36.624 90.0962 36.624C90.9922 36.624 91.8402 36.728 92.6402 36.936C93.4562 37.144 94.3042 37.44 95.1842 37.824L94.0082 40.656C93.2242 40.336 92.5202 40.088 91.8962 39.912C91.2722 39.736 90.6322 39.648 89.9762 39.648C89.5282 39.648 89.1442 39.72 88.8242 39.864C88.5042 40.008 88.2562 40.208 88.0802 40.464C87.9202 40.72 87.8402 41.024 87.8402 41.376C87.8402 41.776 87.9602 42.12 88.2002 42.408C88.4402 42.68 88.8002 42.944 89.2802 43.2C89.7602 43.456 90.3602 43.76 91.0802 44.112C91.9602 44.528 92.7042 44.96 93.3122 45.408C93.9362 45.856 94.4162 46.384 94.7522 46.992C95.0882 47.6 95.2562 48.352 95.2562 49.248ZM103.483 40.656C104.699 40.656 105.739 40.888 106.603 41.352C107.483 41.816 108.163 42.488 108.643 43.368C109.123 44.248 109.363 45.328 109.363 46.608V48.336H100.915C100.947 49.344 101.243 50.136 101.803 50.712C102.379 51.288 103.171 51.576 104.179 51.576C105.027 51.576 105.795 51.496 106.483 51.336C107.171 51.16 107.883 50.896 108.619 50.544V53.304C107.979 53.624 107.299 53.856 106.579 54C105.875 54.16 105.019 54.24 104.011 54.24C102.699 54.24 101.539 54 100.531 53.52C99.5229 53.024 98.7309 52.28 98.1549 51.288C97.5789 50.296 97.2909 49.048 97.2909 47.544C97.2909 46.008 97.5469 44.736 98.0589 43.728C98.5869 42.704 99.3149 41.936 100.243 41.424C101.171 40.912 102.251 40.656 103.483 40.656ZM103.507 43.2C102.819 43.2 102.243 43.424 101.779 43.872C101.331 44.32 101.067 45.016 100.987 45.96H106.003C106.003 45.432 105.907 44.96 105.715 44.544C105.539 44.128 105.267 43.8 104.899 43.56C104.531 43.32 104.067 43.2 103.507 43.2ZM117.639 40.632C119.399 40.632 120.743 41.016 121.671 41.784C122.615 42.536 123.087 43.696 123.087 45.264V54H120.591L119.895 52.224H119.799C119.431 52.688 119.047 53.072 118.647 53.376C118.263 53.68 117.815 53.896 117.303 54.024C116.807 54.168 116.191 54.24 115.455 54.24C114.687 54.24 113.991 54.096 113.367 53.808C112.759 53.504 112.279 53.048 111.927 52.44C111.575 51.816 111.399 51.032 111.399 50.088C111.399 48.696 111.887 47.672 112.863 47.016C113.839 46.344 115.303 45.976 117.255 45.912L119.535 45.84V45.264C119.535 44.576 119.351 44.072 118.983 43.752C118.631 43.432 118.135 43.272 117.495 43.272C116.855 43.272 116.231 43.368 115.623 43.56C115.015 43.736 114.407 43.96 113.799 44.232L112.623 41.808C113.327 41.44 114.103 41.152 114.951 40.944C115.815 40.736 116.711 40.632 117.639 40.632ZM118.143 47.976C116.991 48.008 116.191 48.216 115.743 48.6C115.295 48.984 115.071 49.488 115.071 50.112C115.071 50.656 115.231 51.048 115.551 51.288C115.871 51.512 116.287 51.624 116.799 51.624C117.567 51.624 118.215 51.4 118.743 50.952C119.271 50.488 119.535 49.84 119.535 49.008V47.928L118.143 47.976ZM134.067 40.656C134.243 40.656 134.451 40.664 134.691 40.68C134.931 40.696 135.123 40.72 135.267 40.752L135.003 44.112C134.891 44.08 134.723 44.056 134.499 44.04C134.291 44.008 134.107 43.992 133.947 43.992C133.483 43.992 133.035 44.056 132.603 44.184C132.171 44.296 131.779 44.48 131.427 44.736C131.091 44.992 130.819 45.336 130.611 45.768C130.419 46.184 130.323 46.704 130.323 47.328V54H126.747V40.896H129.459L129.987 43.104H130.155C130.411 42.656 130.731 42.248 131.115 41.88C131.499 41.512 131.939 41.216 132.435 40.992C132.947 40.768 133.491 40.656 134.067 40.656ZM142.505 54.24C141.209 54.24 140.105 54.008 139.193 53.544C138.281 53.064 137.585 52.328 137.105 51.336C136.625 50.344 136.385 49.072 136.385 47.52C136.385 45.92 136.657 44.616 137.201 43.608C137.745 42.6 138.497 41.856 139.457 41.376C140.433 40.896 141.553 40.656 142.817 40.656C143.713 40.656 144.489 40.744 145.145 40.92C145.817 41.096 146.401 41.304 146.897 41.544L145.841 44.304C145.281 44.08 144.753 43.896 144.257 43.752C143.777 43.608 143.297 43.536 142.817 43.536C142.193 43.536 141.673 43.688 141.257 43.992C140.841 44.28 140.529 44.72 140.321 45.312C140.129 45.888 140.033 46.616 140.033 47.496C140.033 48.36 140.137 49.08 140.345 49.656C140.569 50.216 140.889 50.64 141.305 50.928C141.721 51.2 142.225 51.336 142.817 51.336C143.569 51.336 144.233 51.24 144.809 51.048C145.385 50.84 145.945 50.56 146.489 50.208V53.256C145.945 53.608 145.369 53.856 144.761 54C144.169 54.16 143.417 54.24 142.505 54.24ZM153.081 39.48C153.081 40.12 153.057 40.736 153.009 41.328C152.977 41.92 152.945 42.336 152.913 42.576H153.105C153.393 42.128 153.729 41.768 154.113 41.496C154.497 41.208 154.921 41 155.385 40.872C155.865 40.728 156.369 40.656 156.897 40.656C157.841 40.656 158.665 40.824 159.369 41.16C160.073 41.496 160.617 42.016 161.001 42.72C161.401 43.424 161.601 44.336 161.601 45.456V54H158.025V46.344C158.025 45.4 157.849 44.696 157.497 44.232C157.161 43.752 156.633 43.512 155.913 43.512C155.193 43.512 154.625 43.68 154.209 44.016C153.809 44.352 153.521 44.84 153.345 45.48C153.169 46.12 153.081 46.904 153.081 47.832V54H149.505V35.76H153.081V39.48Z" fill="white"/>
</svg>
